# xmcd CD database file
#
# Track frame offsets:
#	150
#	24690
#	60417
#
# Disc length: 4440 seconds
#
# Revision: 0
# Processed by: cddbd v1.5.1PL0 Copyright (c) Steve Scherf et al.
# Submitted via: CDex 1.51
#
DISCID=1d115603
DTITLE=RATHER UNIQUE - つつみ込むように・・・ 〜R.U.WRAPPING〜
DYEAR=2005
DGENRE=JPop
TTITLE0=つつみ込むように・・・ 〜R.U.WRAPPING〜
TTITLE1=つつみ込むように・・・ 〜R.U.WRAPPING〜 (Instrumental)
TTITLE2=cccd
EXTD=YEAR: 2005
EXTT0=
EXTT1=
EXTT2=
PLAYORDER=
